<svg width="410" height="78" viewBox="0 0 410 78" fill="none" xmlns="http://www.w3.org/2000/svg">
<path d="M35.2111 57.7789C35.2111 56.0176 34.7061 54.6452 33.6961 53.6159C32.6861 52.6094 31.3548 51.786 29.7022 51.1912C28.0495 50.5737 26.1673 50.0933 24.0555 49.7502C21.9438 49.4071 19.7861 48.9954 17.6055 48.5608C15.4249 48.1033 13.2673 47.5086 11.1555 46.7537C9.04378 45.9989 7.16157 44.9696 5.5089 43.6429C3.85623 42.3162 2.52491 40.6007 1.51495 38.4963C0.504983 36.3919 0 33.7157 0 30.4676C0 26.8536 0.757474 23.8342 2.27242 21.4096C3.78737 18.985 5.94502 17.0178 8.76833 15.5082C11.5687 13.9985 14.9429 12.9234 18.8909 12.283C22.839 11.6425 27.2232 11.3223 32.0205 11.3223H54.4463C55.4104 11.3223 56.1908 11.8255 56.7646 12.8319C57.3614 13.8384 57.6369 15.2108 57.6369 16.9035C57.6369 18.5961 57.3385 19.9686 56.7646 20.975C56.1678 21.9814 55.4104 22.4847 54.4463 22.4847H32.0205C30.8498 22.4847 29.771 22.6219 28.807 22.8735C27.8429 23.148 26.9936 23.5826 26.282 24.2231C25.5705 24.8635 24.9966 25.687 24.6064 26.6934C24.2162 27.6999 24.0096 28.9579 24.0096 30.4447C24.0096 32.1603 24.5146 33.4869 25.5246 34.4705C26.5345 35.4541 27.8659 36.2547 29.5185 36.8723C31.1712 37.4899 33.0534 37.9702 35.1652 38.3133C37.2769 38.6564 39.4116 39.0682 41.6152 39.5485C43.7958 40.0289 45.9534 40.6236 48.0652 41.3555C50.1769 42.0646 52.0591 43.1168 53.7118 44.4664C55.3645 45.8159 56.6958 47.5543 57.7287 49.6587C58.7387 51.7631 59.2436 54.4393 59.2436 57.6874C59.2436 61.3015 58.4862 64.3665 56.9942 66.8598C55.5022 69.353 53.3904 71.3659 50.6589 72.8756C47.9274 74.3853 44.6451 75.4832 40.8118 76.1465C36.9555 76.8099 32.6861 77.153 28.0036 77.153H4.77438C3.81032 77.153 3.0299 76.6498 2.45605 75.6433C1.85925 74.6369 1.58381 73.2644 1.58381 71.5718C1.58381 69.8791 1.88221 68.5067 2.45605 67.5003C3.05285 66.4938 3.81032 65.9906 4.77438 65.9906H28.0036C30.1842 65.9906 31.9516 65.3959 33.26 64.1836C34.5684 62.9941 35.2111 60.844 35.2111 57.756V57.7789Z" fill="#FBDCC9"/>
<path d="M64.064 52.0367C64.064 47.3018 64.7755 43.3447 66.1757 40.1423C67.5988 36.94 69.5958 34.3782 72.1896 32.411C74.7834 30.4439 77.9051 29.0257 81.5547 28.1794C85.2044 27.333 89.2672 26.8984 93.6973 26.8984C98.1273 26.8984 102.167 27.333 105.84 28.1794C109.489 29.0257 112.611 30.4439 115.205 32.411C117.799 34.3782 119.796 36.9629 121.219 40.1423C122.642 43.3447 123.331 47.3018 123.331 52.0367C123.331 56.7716 122.619 60.6601 121.219 63.8853C119.796 67.1105 117.799 69.6953 115.205 71.6624C112.611 73.6296 109.489 75.0477 105.84 75.8941C102.19 76.7404 98.1273 77.175 93.6973 77.175C89.2672 77.175 85.2273 76.7404 81.5547 75.8941C77.9051 75.0477 74.7834 73.6296 72.1896 71.6624C69.5958 69.6953 67.5988 67.1105 66.1757 63.8853C64.7526 60.6601 64.064 56.7258 64.064 52.0367ZM93.6973 65.9897C95.3958 65.9897 96.7731 64.9604 97.783 62.9246C98.793 60.8889 99.298 57.2519 99.298 52.0367C99.298 46.8215 98.793 43.1846 97.783 41.1488C96.7731 39.113 95.3958 38.0837 93.6973 38.0837C92.848 38.0837 92.0675 38.3124 91.3789 38.7928C90.6903 39.2731 90.0935 40.0509 89.6115 41.1488C89.1295 42.2467 88.7622 43.6878 88.4868 45.4491C88.2113 47.2332 88.0965 49.4291 88.0965 52.0367C88.0965 54.6443 88.2343 56.8402 88.4868 58.6244C88.7622 60.4085 89.1295 61.8496 89.6115 62.9246C90.0935 64.0226 90.6903 64.8003 91.3789 65.2806C92.0675 65.761 92.848 65.9897 93.6973 65.9897Z" fill="#FBDCC9"/>
<path d="M161.778 41.6529C164.67 41.6529 166.988 40.8066 168.756 39.1368C170.523 37.467 171.396 35.111 171.396 32.0688C171.396 29.0266 170.523 26.6706 168.756 25.0008C166.988 23.331 164.67 22.4847 161.778 22.4847H156.567C155.764 22.4847 155.374 22.8735 155.374 23.6741V39.2283C153.675 39.2283 152.298 39.9602 151.288 41.4242C150.278 42.8881 149.773 44.8095 149.773 47.2112C149.773 49.613 150.278 51.5344 151.288 52.9983C152.298 54.4622 153.675 55.1942 155.374 55.1942V70.7483C155.374 72.9213 154.272 74.6597 152.091 75.9864C149.888 77.2902 146.996 77.9536 143.369 77.9536C139.742 77.9536 136.827 77.2902 134.647 75.9864C132.466 74.6826 131.364 72.9442 131.364 70.7483V16.1258C131.364 14.6847 131.8 13.541 132.696 12.6489C133.591 11.7569 134.738 11.3223 136.185 11.3223H161.824C166.851 11.3223 171.419 11.734 175.527 12.5574C179.636 13.3809 183.171 14.639 186.132 16.3087C189.093 17.9785 191.388 20.1287 193.018 22.7363C194.648 25.3439 195.451 28.4547 195.451 32.0688C195.451 35.4312 194.625 38.3819 192.972 40.9667C191.319 43.5514 188.978 45.7244 185.925 47.4628C188.496 48.8581 190.447 50.6194 191.801 52.7695C193.156 54.9197 193.844 57.573 193.844 60.7067V70.7712C193.844 72.9442 192.743 74.6826 190.562 76.0093C188.381 77.3131 185.466 77.9764 181.84 77.9764C178.213 77.9764 175.298 77.3131 173.117 76.0093C170.914 74.7055 169.835 72.9671 169.835 70.7712V60.7982C169.835 57.8246 169.1 55.7431 167.631 54.5766C166.162 53.41 164.234 52.8153 161.824 52.8153H155.42C154.456 52.8153 153.675 52.3121 153.101 51.3056C152.505 50.2992 152.229 48.9496 152.229 47.2341C152.229 45.5186 152.528 44.169 153.101 43.1626C153.698 42.1561 154.456 41.6529 155.42 41.6529H161.824H161.778Z" fill="#FBDCC9"/>
<path d="M200.226 52.0367C200.226 47.3018 200.937 43.3447 202.337 40.1423C203.76 36.94 205.757 34.3782 208.351 32.411C210.945 30.4439 214.067 29.0257 217.716 28.1794C221.366 27.333 225.429 26.8984 229.859 26.8984C234.289 26.8984 238.329 27.333 242.001 28.1794C245.674 29.0257 248.773 30.4439 251.367 32.411C253.96 34.3782 255.957 36.9629 257.38 40.1423C258.804 43.3447 259.492 47.3018 259.492 52.0367C259.492 56.7716 258.781 60.6601 257.38 63.8853C255.957 67.1105 253.96 69.6953 251.367 71.6624C248.773 73.6296 245.651 75.0477 242.001 75.8941C238.352 76.7404 234.289 77.175 229.859 77.175C225.429 77.175 221.389 76.7404 217.716 75.8941C214.067 75.0477 210.945 73.6296 208.351 71.6624C205.757 69.6953 203.76 67.1105 202.337 63.8853C200.914 60.6601 200.226 56.7258 200.226 52.0367ZM229.859 65.9897C231.557 65.9897 232.935 64.9604 233.945 62.9246C234.955 60.8889 235.46 57.2519 235.46 52.0367C235.46 46.8215 234.955 43.1846 233.945 41.1488C232.935 39.113 231.557 38.0837 229.859 38.0837C229.01 38.0837 228.229 38.3124 227.541 38.7928C226.852 39.2731 226.255 40.0509 225.773 41.1488C225.291 42.2467 224.924 43.6878 224.648 45.4491C224.373 47.2103 224.258 49.4291 224.258 52.0367C224.258 54.6443 224.396 56.8402 224.648 58.6244C224.901 60.4085 225.291 61.8496 225.773 62.9246C226.255 64.0226 226.829 64.8003 227.541 65.2806C228.229 65.761 229.01 65.9897 229.859 65.9897Z" fill="#FBDCC9"/>
<path d="M264.29 52.0367C264.29 47.3018 265.001 43.3447 266.401 40.1423C267.824 36.94 269.821 34.3782 272.415 32.411C275.009 30.4439 278.131 29.0257 281.78 28.1794C285.43 27.333 289.493 26.8984 293.923 26.8984C298.353 26.8984 302.393 27.333 306.065 28.1794C309.738 29.0257 312.837 30.4439 315.431 32.411C318.024 34.3782 320.021 36.9629 321.444 40.1423C322.868 43.3447 323.556 47.3018 323.556 52.0367C323.556 56.7716 322.845 60.6601 321.444 63.8853C320.021 67.1105 318.024 69.6953 315.431 71.6624C312.837 73.6296 309.715 75.0477 306.065 75.8941C302.416 76.7404 298.353 77.175 293.923 77.175C289.493 77.175 285.453 76.7404 281.78 75.8941C278.131 75.0477 275.009 73.6296 272.415 71.6624C269.821 69.6953 267.824 67.1105 266.401 63.8853C264.978 60.6601 264.29 56.7258 264.29 52.0367ZM293.923 65.9897C295.621 65.9897 296.999 64.9604 298.009 62.9246C299.019 60.8889 299.524 57.2519 299.524 52.0367C299.524 46.8215 299.019 43.1846 298.009 41.1488C296.999 39.113 295.621 38.0837 293.923 38.0837C293.074 38.0837 292.293 38.3124 291.605 38.7928C290.916 39.2731 290.319 40.0509 289.837 41.1488C289.355 42.2467 288.988 43.6878 288.712 45.4491C288.437 47.2103 288.322 49.4291 288.322 52.0367C288.322 54.6443 288.46 56.8402 288.712 58.6244C288.965 60.4085 289.355 61.8496 289.837 62.9246C290.319 64.0226 290.893 64.8003 291.605 65.2806C292.293 65.761 293.074 65.9897 293.923 65.9897Z" fill="#FBDCC9"/>
<path d="M382.042 70.7946C382.042 72.9676 381.078 74.706 379.15 76.0327C377.222 77.3365 374.445 77.9998 370.818 77.9998C367.191 77.9998 364.414 77.3365 362.486 76.0327C360.558 74.7289 359.593 72.9905 359.593 70.7946V52.0381C359.593 49.4305 359.593 47.2346 359.548 45.4505C359.525 43.6663 359.41 42.2253 359.226 41.1502C359.043 40.0522 358.767 39.2745 358.377 38.7942C358.01 38.3138 357.459 38.0851 356.77 38.0851C356.082 38.0851 355.531 38.3138 355.163 38.7942C354.796 39.2745 354.498 40.0522 354.314 41.1502C354.13 42.2481 354.016 43.6892 353.993 45.4505C353.97 47.2117 353.947 49.4305 353.947 52.0381V70.7946C353.947 72.9676 352.983 74.706 351.055 76.0327C349.127 77.3365 346.349 77.9998 342.722 77.9998C339.096 77.9998 336.318 77.3365 334.39 76.0327C332.462 74.7289 331.498 72.9905 331.498 70.7946V32.481C331.498 31.04 331.934 29.8963 332.829 29.0042C333.725 28.1121 334.872 27.6775 336.318 27.6775H349.127C351.146 27.6775 352.593 28.501 353.442 30.1479C354.98 28.9813 356.701 28.135 358.561 27.6318C360.42 27.1286 362.486 26.877 364.735 26.877C366.985 26.877 369.211 27.2201 371.139 27.8834C373.067 28.5467 374.743 29.6447 376.189 31.2001C378.002 29.6676 380.091 28.5467 382.478 27.8834C384.843 27.2201 387.482 26.877 390.374 26.877C393.267 26.877 396.067 27.3116 398.454 28.1579C400.841 29.0042 402.907 30.4224 404.629 32.3895C406.327 34.3567 407.659 36.9414 408.6 40.1209C409.541 43.3232 410 47.2804 410 52.0152V70.7717C410 72.9447 409.036 74.6831 407.108 76.0098C405.18 77.3136 402.402 77.977 398.776 77.977C395.149 77.977 392.371 77.3136 390.443 76.0098C388.515 74.706 387.551 72.9676 387.551 70.7717V52.0152C387.551 49.4076 387.551 47.2117 387.505 45.4276C387.459 43.6434 387.368 42.2024 387.184 41.1273C387 40.0294 386.725 39.2517 386.335 38.7713C385.967 38.291 385.416 38.0622 384.728 38.0622C384.039 38.0622 383.488 38.291 383.121 38.7713C382.754 39.2517 382.455 40.0294 382.272 41.1273C382.088 42.2253 381.973 43.6663 381.95 45.4276C381.927 47.1889 381.905 49.4076 381.905 52.0152V70.7717L382.042 70.7946Z" fill="#FBDCC9"/>
<path d="M40.5599 0.548828C36.1298 0.548828 36.1298 7.41096 40.5599 7.41096C44.9899 7.41096 44.9899 0.548828 40.5599 0.548828Z" fill="#FBDCC9"/>
<path d="M53.4822 0C49.0521 0 49.0521 6.86213 53.4822 6.86213C57.9123 6.86213 57.9123 0 53.4822 0Z" fill="#FBDCC9"/>
<path d="M285.087 16.2402C280.657 16.2402 280.657 23.1024 285.087 23.1024C289.517 23.1024 289.517 16.2402 285.087 16.2402Z" fill="#FBDCC9"/>
<path d="M303.058 15.6914C298.628 15.6914 298.628 22.5535 303.058 22.5535C307.488 22.5535 307.488 15.6914 303.058 15.6914Z" fill="#FBDCC9"/>
</svg>
