<svg width="70" height="71" viewBox="0 0 70 71" fill="none" xmlns="http://www.w3.org/2000/svg">
<path d="M35 9.25C51.9167 9.25 65.6279 19.9367 65.6279 33.1229C65.6279 46.3063 51.9167 56.9929 35.0029 56.9929C33.3189 56.99 31.6367 56.8828 29.9658 56.6721L17.1092 65.0809C15.6479 65.8538 15.1317 65.7692 15.7325 63.8763L18.3342 53.1488C9.93418 48.8904 4.37793 41.5113 4.37793 33.1229C4.37793 19.9396 18.0863 9.25 35.0029 9.25M52.2346 32.7584L56.5221 28.605C56.7695 28.3481 56.9075 28.0052 56.9071 27.6485C56.9067 27.2918 56.7678 26.9492 56.5198 26.6929C56.2718 26.4365 55.9339 26.2865 55.5775 26.2743C55.221 26.2621 54.8737 26.3887 54.6088 26.6275L48.9854 32.07V27.5725C48.9854 27.2074 48.8404 26.8572 48.5822 26.5991C48.324 26.3409 47.9739 26.1958 47.6088 26.1958C47.2436 26.1958 46.8935 26.3409 46.6353 26.5991C46.3771 26.8572 46.2321 27.2074 46.2321 27.5725V35.0304C46.1836 35.2435 46.1836 35.4648 46.2321 35.6779V39.875C46.2321 40.2401 46.3771 40.5903 46.6353 40.8485C46.8935 41.1066 47.2436 41.2517 47.6088 41.2517C47.9739 41.2517 48.324 41.1066 48.5822 40.8485C48.8404 40.5903 48.9854 40.2401 48.9854 39.875V35.8996L50.2308 34.695L54.3958 40.6246C54.4998 40.7726 54.632 40.8987 54.7847 40.9957C54.9374 41.0927 55.1078 41.1586 55.286 41.1898C55.4642 41.2209 55.6468 41.2167 55.8233 41.1772C55.9999 41.1378 56.167 41.064 56.315 40.96C56.4631 40.856 56.5892 40.7239 56.6861 40.5712C56.7831 40.4184 56.849 40.2481 56.8802 40.0699C56.9113 39.8917 56.9071 39.7091 56.8677 39.5325C56.8282 39.356 56.7544 39.1889 56.6504 39.0409L52.2346 32.7584ZM43.6071 38.37H39.3488V27.6163C39.3325 27.2625 39.1805 26.9286 38.9243 26.684C38.6682 26.4394 38.3277 26.3029 37.9736 26.3029C37.6194 26.3029 37.2789 26.4394 37.0228 26.684C36.7666 26.9286 36.6146 27.2625 36.5983 27.6163V39.7467C36.5983 40.505 37.2108 41.1234 37.9721 41.1234H43.6071C43.9722 41.1234 44.3224 40.9783 44.5805 40.7201C44.8387 40.462 44.9838 40.1118 44.9838 39.7467C44.9838 39.3816 44.8387 39.0314 44.5805 38.7732C44.3224 38.5151 43.9722 38.37 43.6071 38.37ZM26.5242 35.1879L28.5542 30.2063L30.415 35.185L26.5242 35.1879ZM33.8829 36.6084L33.8888 36.5617C33.8878 36.2149 33.7554 35.8814 33.5183 35.6284L30.4675 27.4617C30.3396 27.0725 30.096 26.7316 29.7692 26.4846C29.4425 26.2375 29.0481 26.0961 28.6388 26.0792C28.2268 26.079 27.8245 26.2034 27.4846 26.4361C27.1446 26.6688 26.8831 26.9988 26.7342 27.3829L21.8867 39.2684C21.7486 39.6064 21.7505 39.9854 21.8919 40.3221C22.0333 40.6588 22.3026 40.9255 22.6406 41.0636C22.9787 41.2016 23.3577 41.1998 23.6944 41.0584C24.0311 40.917 24.2978 40.6476 24.4358 40.3096L25.4042 37.9384H31.4417L32.3108 40.2717C32.3701 40.4461 32.4638 40.6068 32.5864 40.7444C32.7089 40.8819 32.8578 40.9935 33.0243 41.0724C33.1907 41.1514 33.3713 41.1961 33.5553 41.204C33.7394 41.2119 33.9231 41.1828 34.0957 41.1183C34.2683 41.0539 34.4262 40.9555 34.5601 40.8289C34.6939 40.7024 34.801 40.5502 34.875 40.3815C34.949 40.2128 34.9884 40.031 34.9908 39.8468C34.9932 39.6626 34.9587 39.4798 34.8892 39.3092L33.8829 36.6084ZM24.1908 27.6308C24.1916 27.4501 24.1566 27.271 24.0879 27.1038C24.0192 26.9366 23.9181 26.7847 23.7904 26.6567C23.6627 26.5288 23.511 26.4273 23.3439 26.3582C23.1769 26.2892 22.9979 26.2538 22.8171 26.2542H13.3525C12.9874 26.2542 12.6372 26.3992 12.3791 26.6574C12.1209 26.9156 11.9758 27.2657 11.9758 27.6308C11.9758 27.996 12.1209 28.3461 12.3791 28.6043C12.6372 28.8625 12.9874 29.0075 13.3525 29.0075H16.7358V39.9042C16.7358 40.2693 16.8809 40.6195 17.1391 40.8776C17.3972 41.1358 17.7474 41.2809 18.1125 41.2809C18.4776 41.2809 18.8278 41.1358 19.086 40.8776C19.3441 40.6195 19.4892 40.2693 19.4892 39.9042V29.0075H22.8142C22.9952 29.0083 23.1745 28.9732 23.3419 28.9043C23.5093 28.8354 23.6614 28.734 23.7894 28.606C23.9173 28.478 24.0187 28.326 24.0876 28.1586C24.1565 27.9912 24.1916 27.8118 24.1908 27.6308Z" fill="#F7E600"/>
</svg>
