<svg width="78" height="78" viewBox="0 0 78 78" fill="none" xmlns="http://www.w3.org/2000/svg">
<path d="M24.752 71.5C23.296 71.5 22.0567 70.9887 21.034 69.966C20.0113 68.9433 19.5 67.7051 19.5 66.2512V11.7487C19.5 10.2537 20.0016 9.00575 21.0047 8.00475C22.0079 7.00375 23.257 6.50217 24.752 6.5H53.5015C54.9532 6.5 56.1914 7.01133 57.2162 8.034C58.2389 9.05667 58.7502 10.296 58.7502 11.752V22.1975C59.5584 22.2842 60.2604 22.62 60.8562 23.205C61.4521 23.7878 61.75 24.4898 61.75 25.311V31.0602C61.75 31.8814 61.4521 32.5834 60.8562 33.1662C60.2604 33.7491 59.5584 34.0849 58.7502 34.1737V66.248C58.7502 67.6997 58.2389 68.9379 57.2162 69.9627C56.1936 70.9854 54.9553 71.4967 53.5015 71.4967L24.752 71.5ZM24.752 68.25H53.5015C54.0843 68.25 54.5632 68.0626 54.938 67.6877C55.3128 67.3129 55.5002 66.8341 55.5002 66.2512V11.7487C55.5002 11.1659 55.3128 10.6871 54.938 10.3122C54.5632 9.93742 54.0843 9.75 53.5015 9.75H24.752C24.167 9.75 23.6871 9.93742 23.3122 10.3122C22.9374 10.6871 22.75 11.167 22.75 11.752V66.2512C22.75 66.8341 22.9374 67.3129 23.3122 67.6877C23.6871 68.0626 24.167 68.25 24.752 68.25ZM35.9125 46.501L49.751 32.6625L47.45 30.3615L35.9125 41.899L31.3625 37.349L29.0615 39.65L35.9125 46.501Z" fill="black"/>
</svg>
