<svg width="78" height="78" viewBox="0 0 78 78" fill="none" xmlns="http://www.w3.org/2000/svg">
<path fill-rule="evenodd" clip-rule="evenodd" d="M54.99 5.94713C54.4279 5.38748 53.6991 5.0258 52.9135 4.91663C52.1278 4.80747 51.328 4.95675 50.6346 5.34195C49.9413 5.72716 49.392 6.32739 49.0696 7.05211C48.7472 7.77683 48.6693 8.58673 48.8475 9.35963L32.6138 25.5934H20.5042C15.0735 25.5934 12.3581 32.1551 16.1947 35.9966L25.5109 45.3128L7.37588 65.4709C5.76522 67.2616 4.87436 69.5851 4.875 71.9936V73.1246H6.01088C8.41771 73.1241 10.7393 72.2333 12.5288 70.6237L32.6869 52.4839L42.003 61.7951C45.8445 65.6366 52.4062 62.9164 52.4062 57.4905V45.3859L68.64 29.1521C69.4139 29.332 70.2253 29.2549 70.9514 28.9326C71.6776 28.6102 72.279 28.06 72.6646 27.3654C73.0502 26.6707 73.1991 25.8694 73.0886 25.0826C72.9782 24.2958 72.6145 23.5664 72.0525 23.0048L69.1129 20.0603L57.9345 8.88188L54.99 5.94713Z" fill="black"/>
</svg>
