<svg width="24" height="24" viewBox="0 0 24 24" fill="none" xmlns="http://www.w3.org/2000/svg">
<g clip-path="url(#clip0_630_5276)">
<path d="M4.84204 13.6568V7.69078C4.84191 7.49486 4.88042 7.30083 4.95536 7.11981C5.03031 6.93879 5.14022 6.77433 5.27881 6.63584C5.41739 6.49734 5.58193 6.38754 5.763 6.31272C5.94407 6.2379 6.13812 6.19952 6.33404 6.19978H7.82504M4.84204 10.6738H7.07904M10.209 13.6568V7.69078C10.2039 7.49166 10.2387 7.29353 10.3113 7.10806C10.3839 6.9226 10.493 6.75355 10.632 6.6109C10.771 6.46824 10.9371 6.35487 11.1207 6.27745C11.3042 6.20004 11.5014 6.16016 11.7005 6.16016C11.8997 6.16016 12.0969 6.20004 12.2804 6.27745C12.4639 6.35487 12.6301 6.46824 12.7691 6.6109C12.9081 6.75355 13.0172 6.9226 13.0898 7.10806C13.1624 7.29353 13.1972 7.49166 13.192 7.69078V13.6568M10.209 10.6738H13.192M17.666 13.6568L19.158 15.1478M19.158 12.1648C19.1632 12.3639 19.1284 12.562 19.0558 12.7475C18.9832 12.933 18.8741 13.102 18.7351 13.2447C18.5961 13.3873 18.4299 13.5007 18.2464 13.5781C18.0629 13.6555 17.8657 13.6954 17.6665 13.6954C17.4674 13.6954 17.2702 13.6555 17.0867 13.5781C16.9031 13.5007 16.737 13.3873 16.598 13.2447C16.459 13.102 16.3499 12.933 16.2773 12.7475C16.2047 12.562 16.1699 12.3639 16.175 12.1648V7.69078C16.1699 7.49166 16.2047 7.29353 16.2773 7.10806C16.3499 6.9226 16.459 6.75355 16.598 6.6109C16.737 6.46824 16.9031 6.35487 17.0867 6.27745C17.2702 6.20004 17.4674 6.16016 17.6665 6.16016C17.8657 6.16016 18.0629 6.20004 18.2464 6.27745C18.4299 6.35487 18.5961 6.46824 18.7351 6.6109C18.8741 6.75355 18.9832 6.9226 19.0558 7.10806C19.1284 7.29353 19.1632 7.49166 19.158 7.69078V12.1648Z" stroke="black" stroke-width="1.5" stroke-linecap="round" stroke-linejoin="round"/>
<path d="M22.2 2.57031H1.8C1.52116 2.57137 1.25409 2.68288 1.05729 2.88043C0.860495 3.07798 0.749998 3.34547 0.75 3.62431V17.2123C0.749998 17.4912 0.860495 17.7586 1.05729 17.9562C1.25409 18.1537 1.52116 18.2653 1.8 18.2663H4.243C4.0227 19.4099 3.54912 20.4897 2.857 21.4263C5.907 21.4703 7.837 20.2903 8.995 18.2663H22.2C22.4795 18.2663 22.7476 18.1553 22.9453 17.9576C23.143 17.7599 23.254 17.4918 23.254 17.2123V3.62431C23.254 3.34477 23.143 3.07669 22.9453 2.87902C22.7476 2.68136 22.4795 2.57031 22.2 2.57031Z" stroke="black" stroke-width="1.5" stroke-linecap="round" stroke-linejoin="round"/>
</g>
<defs>
<clipPath id="clip0_630_5276">
<rect width="24" height="24" fill="white"/>
</clipPath>
</defs>
</svg>
