<svg width="30" height="30" viewBox="0 0 30 30" fill="none" xmlns="http://www.w3.org/2000/svg">
<path d="M15.0002 3.75C22.2502 3.75 28.1265 8.33 28.1265 13.9813C28.1265 19.6313 22.2502 24.2113 15.0015 24.2113C14.2797 24.21 13.5588 24.1641 12.8427 24.0738L7.33272 27.6775C6.70647 28.0088 6.48522 27.9725 6.74271 27.1613L7.85771 22.5638C4.25771 20.7388 1.87646 17.5763 1.87646 13.9813C1.87646 8.33125 7.75146 3.75 15.0015 3.75M22.3865 13.825L24.224 12.045C24.33 11.9349 24.3891 11.7879 24.389 11.6351C24.3888 11.4822 24.3293 11.3354 24.223 11.2255C24.1167 11.1157 23.9719 11.0513 23.8191 11.0461C23.6664 11.0409 23.5175 11.0952 23.404 11.1975L20.994 13.53V11.6025C20.994 11.446 20.9318 11.296 20.8212 11.1853C20.7105 11.0747 20.5604 11.0125 20.404 11.0125C20.2475 11.0125 20.0974 11.0747 19.9868 11.1853C19.8761 11.296 19.814 11.446 19.814 11.6025V14.7987C19.7932 14.8901 19.7932 14.9849 19.814 15.0763V16.875C19.814 17.0315 19.8761 17.1815 19.9868 17.2922C20.0974 17.4028 20.2475 17.465 20.404 17.465C20.5604 17.465 20.7105 17.4028 20.8212 17.2922C20.9318 17.1815 20.994 17.0315 20.994 16.875V15.1713L21.5277 14.655L23.3127 17.1962C23.3573 17.2597 23.4139 17.3137 23.4794 17.3553C23.5448 17.3969 23.6178 17.4251 23.6942 17.4385C23.7706 17.4518 23.8488 17.45 23.9245 17.4331C24.0002 17.4162 24.0718 17.3846 24.1352 17.34C24.1987 17.2954 24.2527 17.2388 24.2943 17.1734C24.3358 17.1079 24.3641 17.0349 24.3774 16.9585C24.3908 16.8821 24.389 16.8039 24.3721 16.7282C24.3552 16.6525 24.3235 16.5809 24.279 16.5175L22.3865 13.825ZM18.689 16.23H16.864V11.6213C16.857 11.4696 16.7918 11.3265 16.6821 11.2217C16.5723 11.1169 16.4264 11.0584 16.2746 11.0584C16.1228 11.0584 15.9769 11.1169 15.8671 11.2217C15.7573 11.3265 15.6922 11.4696 15.6852 11.6213V16.82C15.6852 17.145 15.9477 17.41 16.274 17.41H18.689C18.8454 17.41 18.9955 17.3478 19.1062 17.2372C19.2168 17.1265 19.279 16.9765 19.279 16.82C19.279 16.6635 19.2168 16.5135 19.1062 16.4028C18.9955 16.2922 18.8454 16.23 18.689 16.23ZM11.3677 14.8662L12.2377 12.7313L13.0352 14.865L11.3677 14.8662ZM14.5215 15.475L14.524 15.455C14.5235 15.3064 14.4668 15.1635 14.3652 15.055L13.0577 11.555C13.0029 11.3882 12.8985 11.2421 12.7585 11.1362C12.6184 11.0304 12.4494 10.9698 12.274 10.9625C12.0974 10.9624 11.925 11.0157 11.7793 11.1155C11.6336 11.2152 11.5215 11.3566 11.4577 11.5212L9.38022 16.615C9.32104 16.7599 9.32184 16.9223 9.38243 17.0666C9.44303 17.2109 9.55847 17.3252 9.70334 17.3844C9.84821 17.4436 10.0107 17.4428 10.1549 17.3822C10.2992 17.3216 10.4135 17.2061 10.4727 17.0613L10.8877 16.045H13.4752L13.8477 17.045C13.8731 17.1197 13.9133 17.1886 13.9658 17.2476C14.0183 17.3065 14.0821 17.3543 14.1535 17.3882C14.2248 17.422 14.3022 17.4412 14.3811 17.4446C14.4599 17.4479 14.5387 17.4355 14.6127 17.4078C14.6866 17.3802 14.7543 17.3381 14.8117 17.2838C14.869 17.2296 14.9149 17.1644 14.9466 17.0921C14.9783 17.0198 14.9952 16.9418 14.9963 16.8629C14.9973 16.784 14.9825 16.7056 14.9527 16.6325L14.5215 15.475ZM10.3677 11.6275C10.368 11.55 10.3531 11.4733 10.3236 11.4016C10.2941 11.33 10.2508 11.2648 10.1961 11.21C10.1414 11.1552 10.0763 11.1117 10.0048 11.0821C9.93317 11.0525 9.85643 11.0373 9.77896 11.0375H5.72271C5.56624 11.0375 5.41617 11.0997 5.30552 11.2103C5.19488 11.321 5.13271 11.471 5.13271 11.6275C5.13271 11.784 5.19488 11.934 5.30552 12.0447C5.41617 12.1553 5.56624 12.2175 5.72271 12.2175H7.17271V16.8875C7.17271 17.044 7.23488 17.194 7.34552 17.3047C7.45617 17.4153 7.60624 17.4775 7.76271 17.4775C7.91919 17.4775 8.06926 17.4153 8.17991 17.3047C8.29055 17.194 8.35272 17.044 8.35272 16.8875V12.2175H9.77771C9.85529 12.2178 9.93216 12.2028 10.0039 12.1733C10.0756 12.1437 10.1408 12.1003 10.1956 12.0454C10.2505 11.9906 10.2939 11.9254 10.3235 11.8537C10.353 11.7819 10.368 11.7051 10.3677 11.6275Z" fill="#F9E000"/>
</svg>
