<svg width="156" height="30" viewBox="0 0 156 30" fill="none" xmlns="http://www.w3.org/2000/svg">
<g clip-path="url(#clip0_358_128)">
<path d="M13.3991 22.2294C13.3991 21.5518 13.207 21.0238 12.823 20.6277C12.4389 20.2405 11.9326 19.9237 11.3041 19.6949C10.6756 19.4573 9.95985 19.2725 9.15678 19.1405C8.35372 19.0085 7.53319 18.8501 6.70393 18.6829C5.87468 18.5069 5.05415 18.2781 4.25108 17.9877C3.44802 17.6973 2.73224 17.3013 2.10375 16.7908C1.47526 16.2804 0.968979 15.6204 0.584903 14.8108C0.200827 14.0012 0.00878906 12.9715 0.00878906 11.7219C0.00878906 10.3315 0.296846 9.16984 0.87296 8.23701C1.44907 7.30419 2.2696 6.54737 3.34327 5.96655C4.40821 5.38574 5.69137 4.97213 7.19276 4.72572C8.69415 4.47931 10.3614 4.35611 12.1857 4.35611H20.714C21.0806 4.35611 21.3774 4.54972 21.5956 4.93693C21.8226 5.32414 21.9273 5.85215 21.9273 6.50337C21.9273 7.15458 21.8138 7.6826 21.5956 8.06981C21.3687 8.45702 21.0806 8.65062 20.714 8.65062H12.1857C11.7406 8.65062 11.3303 8.70343 10.9637 8.80023C10.5971 8.90583 10.2741 9.07304 10.0035 9.31944C9.7329 9.56585 9.51467 9.88266 9.36628 10.2699C9.21789 10.6571 9.13933 11.1411 9.13933 11.7131C9.13933 12.3731 9.33136 12.8835 9.71544 13.2619C10.0995 13.6404 10.6058 13.9484 11.2343 14.186C11.8628 14.4236 12.5786 14.6084 13.3816 14.7404C14.1847 14.8724 14.9965 15.0308 15.8345 15.2156C16.6637 15.4004 17.4843 15.6292 18.2873 15.9108C19.0904 16.1836 19.8062 16.5884 20.4347 17.1077C21.0631 17.6269 21.5694 18.2957 21.9622 19.1053C22.3463 19.9149 22.5383 20.9446 22.5383 22.1942C22.5383 23.5846 22.2503 24.7639 21.6829 25.7231C21.1155 26.6823 20.3125 27.4567 19.2737 28.0375C18.2349 28.6184 16.9867 29.0408 15.529 29.296C14.0625 29.5512 12.4389 29.6832 10.6582 29.6832H1.82442C1.4578 29.6832 1.16102 29.4896 0.942792 29.1024C0.715838 28.7152 0.61109 28.1871 0.61109 27.5359C0.61109 26.8847 0.724567 26.3567 0.942792 25.9695C1.16975 25.5823 1.4578 25.3887 1.82442 25.3887H10.6582C11.4874 25.3887 12.1596 25.1599 12.6571 24.6935C13.1547 24.2358 13.3991 23.4086 13.3991 22.2206V22.2294Z" fill="#C88A64"/>
<path d="M24.3713 20.0205C24.3713 18.1989 24.6419 16.6764 25.1744 15.4444C25.7156 14.2124 26.475 13.2268 27.4614 12.4699C28.4478 11.7131 29.6349 11.1675 31.0228 10.8419C32.4108 10.5163 33.9558 10.3491 35.6405 10.3491C37.3252 10.3491 38.8615 10.5163 40.2581 10.8419C41.646 11.1675 42.8332 11.7131 43.8196 12.4699C44.8059 13.2268 45.5654 14.2212 46.1066 15.4444C46.6478 16.6764 46.9096 18.1989 46.9096 20.0205C46.9096 21.8422 46.639 23.3382 46.1066 24.5791C45.5654 25.8199 44.8059 26.8143 43.8196 27.5711C42.8332 28.328 41.646 28.8736 40.2581 29.1992C38.8702 29.5248 37.3252 29.692 35.6405 29.692C33.9558 29.692 32.4195 29.5248 31.0228 29.1992C29.6349 28.8736 28.4478 28.328 27.4614 27.5711C26.475 26.8143 25.7156 25.8199 25.1744 24.5791C24.6332 23.3382 24.3713 21.8246 24.3713 20.0205ZM35.6405 25.3975C36.2864 25.3975 36.8102 25.0015 37.1942 24.2182C37.5783 23.435 37.7704 22.0358 37.7704 20.0293C37.7704 18.0229 37.5783 16.6236 37.1942 15.8404C36.8102 15.0572 36.2864 14.6612 35.6405 14.6612C35.3175 14.6612 35.0207 14.7492 34.7589 14.934C34.497 15.1188 34.27 15.418 34.0867 15.8404C33.9034 16.2628 33.7637 16.8172 33.659 17.4949C33.5543 18.1813 33.5106 19.0261 33.5106 20.0293C33.5106 21.0326 33.563 21.8774 33.659 22.5638C33.7637 23.2502 33.9034 23.8046 34.0867 24.2182C34.27 24.6407 34.497 24.9399 34.7589 25.1247C35.0207 25.3095 35.3175 25.3975 35.6405 25.3975Z" fill="#C88A64"/>
<path d="M61.5308 16.0252C62.6306 16.0252 63.5123 15.6996 64.1844 15.0572C64.8565 14.4148 65.1882 13.5084 65.1882 12.3379C65.1882 11.1675 64.8565 10.2611 64.1844 9.61865C63.5123 8.97623 62.6306 8.65062 61.5308 8.65062H59.5493C59.2438 8.65062 59.0954 8.80023 59.0954 9.10824V15.0924C58.4494 15.0924 57.9257 15.374 57.5416 15.9372C57.1575 16.5004 56.9655 17.2397 56.9655 18.1637C56.9655 19.0877 57.1575 19.8269 57.5416 20.3901C57.9257 20.9534 58.4494 21.235 59.0954 21.235V27.2191C59.0954 28.0551 58.6764 28.724 57.8471 29.2344C57.0091 29.736 55.9093 29.9912 54.5301 29.9912C53.1509 29.9912 52.0423 29.736 51.2131 29.2344C50.3838 28.7328 49.9648 28.0639 49.9648 27.2191V6.20416C49.9648 5.64974 50.1307 5.20973 50.4711 4.86652C50.8116 4.52331 51.248 4.35611 51.7979 4.35611H61.5482C63.4599 4.35611 65.197 4.51451 66.7594 4.83132C68.3219 5.14813 69.6662 5.63214 70.7922 6.27456C71.9183 6.91698 72.7912 7.7442 73.4109 8.74743C74.0307 9.75065 74.3362 10.9475 74.3362 12.3379C74.3362 13.6316 74.022 14.7668 73.3935 15.7612C72.765 16.7556 71.8746 17.5917 70.7137 18.2605C71.6913 18.7973 72.4333 19.4749 72.9483 20.3021C73.4633 21.1294 73.7252 22.1502 73.7252 23.3558V27.2279C73.7252 28.0639 73.3062 28.7328 72.4769 29.2432C71.6477 29.7448 70.5391 30 69.1599 30C67.7807 30 66.6722 29.7448 65.8429 29.2432C65.0049 28.7416 64.5947 28.0727 64.5947 27.2279V23.391C64.5947 22.247 64.3153 21.4462 63.7567 20.9974C63.198 20.5485 62.4648 20.3197 61.5482 20.3197H59.1128C58.7462 20.3197 58.4494 20.1261 58.2312 19.7389C58.0043 19.3517 57.8995 18.8325 57.8995 18.1725C57.8995 17.5125 58.013 16.9932 58.2312 16.606C58.4582 16.2188 58.7462 16.0252 59.1128 16.0252H61.5482H61.5308Z" fill="#C88A64"/>
<path d="M76.1519 20.0205C76.1519 18.1989 76.4225 16.6764 76.9549 15.4444C77.4961 14.2124 78.2555 13.2268 79.2419 12.4699C80.2283 11.7131 81.4154 11.1675 82.8034 10.8419C84.1913 10.5163 85.7363 10.3491 87.421 10.3491C89.1057 10.3491 90.642 10.5163 92.0386 10.8419C93.4353 11.1675 94.6137 11.7131 95.6001 12.4699C96.5865 13.2268 97.3459 14.2212 97.8871 15.4444C98.4283 16.6764 98.6901 18.1989 98.6901 20.0205C98.6901 21.8422 98.4195 23.3382 97.8871 24.5791C97.3459 25.8199 96.5865 26.8143 95.6001 27.5711C94.6137 28.328 93.4266 28.8736 92.0386 29.1992C90.6507 29.5248 89.1057 29.692 87.421 29.692C85.7363 29.692 84.2 29.5248 82.8034 29.1992C81.4154 28.8736 80.2283 28.328 79.2419 27.5711C78.2555 26.8143 77.4961 25.8199 76.9549 24.5791C76.4137 23.3382 76.1519 21.8246 76.1519 20.0205ZM87.421 25.3975C88.0669 25.3975 88.5907 25.0015 88.9748 24.2182C89.3588 23.435 89.5509 22.0358 89.5509 20.0293C89.5509 18.0229 89.3588 16.6236 88.9748 15.8404C88.5907 15.0572 88.0669 14.6612 87.421 14.6612C87.098 14.6612 86.8012 14.7492 86.5394 14.934C86.2775 15.1188 86.0506 15.418 85.8672 15.8404C85.6839 16.2628 85.5443 16.8172 85.4395 17.4949C85.3348 18.1725 85.2911 19.0261 85.2911 20.0293C85.2911 21.0326 85.3435 21.8774 85.4395 22.5638C85.5355 23.2502 85.6839 23.8046 85.8672 24.2182C86.0506 24.6407 86.2688 24.9399 86.5394 25.1247C86.8012 25.3095 87.098 25.3975 87.421 25.3975Z" fill="#C88A64"/>
<path d="M100.515 20.0205C100.515 18.1989 100.785 16.6764 101.318 15.4444C101.859 14.2124 102.618 13.2268 103.605 12.4699C104.591 11.7131 105.778 11.1675 107.166 10.8419C108.554 10.5163 110.099 10.3491 111.784 10.3491C113.468 10.3491 115.005 10.5163 116.401 10.8419C117.798 11.1675 118.976 11.7131 119.963 12.4699C120.949 13.2268 121.709 14.2212 122.25 15.4444C122.791 16.6764 123.053 18.1989 123.053 20.0205C123.053 21.8422 122.782 23.3382 122.25 24.5791C121.709 25.8199 120.949 26.8143 119.963 27.5711C118.976 28.328 117.789 28.8736 116.401 29.1992C115.014 29.5248 113.468 29.692 111.784 29.692C110.099 29.692 108.563 29.5248 107.166 29.1992C105.778 28.8736 104.591 28.328 103.605 27.5711C102.618 26.8143 101.859 25.8199 101.318 24.5791C100.777 23.3382 100.515 21.8246 100.515 20.0205ZM111.784 25.3975C112.43 25.3975 112.953 25.0015 113.338 24.2182C113.722 23.435 113.914 22.0358 113.914 20.0293C113.914 18.0229 113.722 16.6236 113.338 15.8404C112.953 15.0572 112.43 14.6612 111.784 14.6612C111.461 14.6612 111.164 14.7492 110.902 14.934C110.64 15.1188 110.413 15.418 110.23 15.8404C110.047 16.2628 109.907 16.8172 109.802 17.4949C109.698 18.1725 109.654 19.0261 109.654 20.0293C109.654 21.0326 109.706 21.8774 109.802 22.5638C109.898 23.2502 110.047 23.8046 110.23 24.2182C110.413 24.6407 110.632 24.9399 110.902 25.1247C111.164 25.3095 111.461 25.3975 111.784 25.3975Z" fill="#C88A64"/>
<path d="M145.294 27.2367C145.294 28.0727 144.928 28.7416 144.194 29.252C143.461 29.7536 142.405 30.0088 141.026 30.0088C139.647 30.0088 138.59 29.7536 137.857 29.252C137.124 28.7504 136.757 28.0815 136.757 27.2367V20.0205C136.757 19.0173 136.757 18.1725 136.74 17.4861C136.731 16.7996 136.687 16.2452 136.618 15.8316C136.548 15.4092 136.443 15.11 136.295 14.9252C136.155 14.7404 135.946 14.6524 135.684 14.6524C135.422 14.6524 135.212 14.7404 135.073 14.9252C134.933 15.11 134.819 15.4092 134.75 15.8316C134.68 16.254 134.636 16.8084 134.627 17.4861C134.619 18.1637 134.61 19.0173 134.61 20.0205V27.2367C134.61 28.0727 134.243 28.7416 133.51 29.252C132.777 29.7536 131.721 30.0088 130.341 30.0088C128.962 30.0088 127.906 29.7536 127.173 29.252C126.44 28.7504 126.073 28.0815 126.073 27.2367V12.4963C126.073 11.9419 126.239 11.5019 126.579 11.1587C126.92 10.8155 127.356 10.6483 127.906 10.6483H132.777C133.545 10.6483 134.095 10.9651 134.418 11.5987C135.003 11.1499 135.657 10.8243 136.365 10.6307C137.072 10.4371 137.857 10.3403 138.713 10.3403C139.568 10.3403 140.415 10.4723 141.148 10.7275C141.881 10.9827 142.518 11.4051 143.068 12.0035C143.758 11.4139 144.552 10.9827 145.46 10.7275C146.359 10.4723 147.363 10.3403 148.463 10.3403C149.563 10.3403 150.628 10.5075 151.536 10.8331C152.443 11.1587 153.229 11.7043 153.884 12.4611C154.53 13.2179 155.036 14.2124 155.394 15.4356C155.752 16.6676 155.926 18.1901 155.926 20.0117V27.2279C155.926 28.0639 155.56 28.7328 154.826 29.2432C154.093 29.7448 153.037 30 151.658 30C150.279 30 149.222 29.7448 148.489 29.2432C147.756 28.7416 147.389 28.0727 147.389 27.2279V20.0117C147.389 19.0085 147.389 18.1637 147.372 17.4773C147.354 16.7908 147.319 16.2364 147.25 15.8228C147.18 15.4004 147.075 15.1012 146.927 14.9164C146.787 14.7316 146.577 14.6436 146.316 14.6436C146.054 14.6436 145.844 14.7316 145.705 14.9164C145.565 15.1012 145.451 15.4004 145.382 15.8228C145.312 16.2452 145.268 16.7996 145.259 17.4773C145.251 18.1549 145.242 19.0085 145.242 20.0117V27.2279L145.294 27.2367Z" fill="#C88A64"/>
<path d="M15.4333 0.211212C13.7481 0.211212 13.7481 2.85128 15.4333 2.85128C17.1186 2.85128 17.1186 0.211212 15.4333 0.211212Z" fill="#9A024B"/>
<path d="M20.3476 0C18.6624 0 18.6624 2.64007 20.3476 2.64007C22.0329 2.64007 22.0329 0 20.3476 0Z" fill="#9A024B"/>
<path d="M108.423 6.24817C106.738 6.24817 106.738 8.88824 108.423 8.88824C110.109 8.88824 110.109 6.24817 108.423 6.24817Z" fill="#9A024B"/>
<path d="M115.258 6.03696C113.573 6.03696 113.573 8.67703 115.258 8.67703C116.943 8.67703 116.943 6.03696 115.258 6.03696Z" fill="#9A024B"/>
</g>
<defs>
<clipPath id="clip0_358_128">
<rect width="155.952" height="30" fill="white"/>
</clipPath>
</defs>
</svg>
